<svg xmlns="http://www.w3.org/2000/svg" xmlns:xlink="http://www.w3.org/1999/xlink"><symbol id="sprite-coment-decor" viewBox="0 0 14 23"><path d="M7.68 10.986a5.96 5.96 0 0 0-2.93.778 20.14 20.14 0 0 1 6.04-8.334 1.528 1.528 0 1 0-1.93-2.36C3.305 5.582.833 11.832.833 15.707a7.06 7.06 0 0 0 4.166 6.403 6.1 6.1 0 0 0 2.68.611 5.888 5.888 0 1 0 0-11.764z"/></symbol><use xlink:href="#sprite-coment-decor" width="14" height="23" y="0"/><view id="sprite-coment-decor-view" viewBox="0 0 14 23"/><symbol id="sprite-facebook" viewBox="0 0 15 28"><path d="M9.826 27.229V15.075h4.285l.641-4.737H9.826V7.314c0-1.371.4-2.305 2.465-2.305l2.635-.002V.771c-.456-.058-2.02-.187-3.839-.187-3.798 0-6.399 2.208-6.399 6.261v3.493H.393v4.737h4.295v12.153z"/></symbol><use xlink:href="#sprite-facebook" width="15" height="28" y="23"/><view id="sprite-facebook-view" viewBox="0 23 15 28"/><symbol id="sprite-instagram" viewBox="0 0 27 28"><path fill-rule="evenodd" clip-rule="evenodd" d="M.258 13.907c0-5.322 0-7.983 1.268-9.9A7.6 7.6 0 0 1 3.68 1.854C5.597.584 8.258.584 13.58.584s7.982 0 9.899 1.269a7.6 7.6 0 0 1 2.155 2.155c1.268 1.916 1.268 4.577 1.268 9.899s0 7.982-1.268 9.898a7.6 7.6 0 0 1-2.155 2.155c-1.917 1.268-4.578 1.268-9.9 1.268-5.32 0-7.982 0-9.898-1.268a7.6 7.6 0 0 1-2.155-2.155C.258 21.89.258 19.228.258 13.907m20.219 0a6.897 6.897 0 1 1-13.794 0 6.897 6.897 0 0 1 13.794 0m-6.897 4.564a4.564 4.564 0 1 0 0-9.127 4.564 4.564 0 0 0 0 9.127m7.169-10.187a1.62 1.62 0 1 0 0-3.241 1.62 1.62 0 0 0 0 3.241"/></symbol><use xlink:href="#sprite-instagram" width="27" height="28" y="51"/><view id="sprite-instagram-view" viewBox="0 51 27 28"/><symbol id="sprite-linkedIn" viewBox="0 0 27 26"><path d="M.257 3.167q0-1.282.9-2.115T3.497.22q1.414 0 2.29.82.9.847.9 2.205 0 1.23-.875 2.05-.9.846-2.366.846H3.42q-1.415 0-2.289-.846T.257 3.167M.59 25.595V8.473H6.3v17.121zm8.873 0h5.71v-9.561q0-.898.205-1.384a3.7 3.7 0 0 1 1.093-1.474q.733-.602 1.839-.602 2.88 0 2.88 3.87v9.15h5.71v-9.816q0-3.794-1.8-5.755t-4.758-1.96q-3.318 0-5.17 2.845v.05h-.025l.025-.05V8.473H9.464q.051.82.051 5.1t-.051 12.022"/></symbol><use xlink:href="#sprite-linkedIn" width="27" height="26" y="79"/><view id="sprite-linkedIn-view" viewBox="0 79 27 26"/><symbol id="sprite-twitter" viewBox="0 0 27 22"><path d="M18.06.142V.138h1.25l.456.09q.457.09.83.234.371.144.72.335.348.192.632.392.28.196.504.417.222.223.69.115a9 9 0 0 0 1.009-.3q.54-.192 1.07-.432.528-.24.643-.304l.12-.072.005-.007.024-.012.024-.012.024-.012.024-.012.005-.008.007-.004.007-.005.005-.007.024-.008.024-.004-.005.036-.007.036-.012.036-.012.036-.012.024-.012.024-.012.035a1 1 0 0 0-.024.096q-.012.06-.228.48-.217.42-.54.852-.325.432-.582.653a6 6 0 0 0-.344.312 1 1 0 0 1-.204.167l-.12.08-.024.012-.024.012-.005.007-.007.005-.007.004-.005.008-.024.012-.024.012-.005.007-.007.005-.008.004-.004.008-.005.007-.007.005-.008.004-.004.008h.12l.672-.144q.673-.144 1.286-.348l.649-.216.072-.024.036-.012.024-.012.024-.012.024-.012.024-.012.048-.007.048-.005v.048l-.012.005-.012.007-.005.007-.007.005-.007.005-.005.007-.005.007-.007.005-.007.005-.005.007-.005.007-.007.005-.012.024-.012.024-.007.005-.306.407q-.3.404-.324.408-.024.008-.067.072-.04.067-.51.535-.468.468-.917.833-.452.367-.457.902-.007.533-.055 1.204a15 15 0 0 1-.18 1.452 17 17 0 0 1-.409 1.763 16 16 0 0 1-.672 1.92q-.396.935-.83 1.68-.431.743-.792 1.259-.36.515-.733.971-.372.456-.942 1.027l-.624.624q-.055.052-.471.393-.413.344-.89.687-.473.34-.869.568-.396.229-.956.52-.558.296-1.206.548a18 18 0 0 1-1.37.468q-.72.216-1.393.336-.672.12-1.526.204l-.853.084v.012H7.874v-.012l-.204-.012a11 11 0 0 1-.337-.024q-.132-.012-.997-.132t-1.357-.24-1.466-.456a14 14 0 0 1-1.665-.68q-.69-.34-.865-.431a6 6 0 0 1-.389-.22l-.216-.133-.005-.007-.007-.005-.007-.004-.005-.008-.024-.012-.024-.012L.3 19.36l-.007-.005-.007-.004-.005-.008-.005-.007-.007-.005H.258v-.048l.024.005.024.007.108.012q.108.012.589.036a11 11 0 0 0 2.126-.108q.564-.084 1.333-.287a10 10 0 0 0 1.413-.485q.642-.284.913-.422.27-.137.822-.509l.552-.372.005-.007.007-.005.007-.005.005-.007.005-.007.007-.005.007-.005.005-.007.024-.007.024-.005.005-.024.007-.024.007-.005.005-.007-.192-.012-.372-.024a3.6 3.6 0 0 1-.565-.108 5.4 5.4 0 0 1-.829-.288 6.4 6.4 0 0 1-.865-.456 4.3 4.3 0 0 1-.608-.439 11 11 0 0 1-.48-.49 5 5 0 0 1-.51-.654 6 6 0 0 1-.413-.775l-.199-.437-.012-.036-.012-.036-.007-.024-.005-.024.036.005.036.007.264.036q.264.036.83.024.564-.012.78-.048a5 5 0 0 0 .264-.048l.048-.012.06-.012.06-.012.005-.007.007-.005.008-.004.004-.008-.048-.012-.048-.012-.048-.012-.048-.012-.048-.012-.168-.048a9 9 0 0 1-.649-.264 5 5 0 0 1-.84-.443 6 6 0 0 1-.596-.473 7 7 0 0 1-.618-.667 4.8 4.8 0 0 1-.6-.948 6 6 0 0 1-.397-1.031 5.6 5.6 0 0 1-.173-.996l-.043-.504.024.005.024.007.024.012.024.012.024.012.024.012.372.168q.373.168.925.288.553.12.661.132l.108.012h.216l-.004-.007-.008-.005-.007-.005-.005-.007-.004-.007-.008-.005-.007-.005-.005-.007-.024-.012-.024-.012-.004-.007-.008-.005-.007-.005-.005-.007-.024-.012-.024-.012-.004-.007-.207-.154q-.197-.15-.413-.39-.217-.24-.433-.505a4 4 0 0 1-.384-.563q-.168-.3-.356-.763a5.4 5.4 0 0 1-.389-1.853 6 6 0 0 1 .024-.78q.036-.323.144-.731t.312-.864l.205-.456.012-.036.012-.036.007-.004.005-.008.005-.007.007-.005.007.005.005.007.005.008.007.004.007.005.005.007.005.008.007.004.012.024.012.024.007.005.005.007.324.36q.325.36.769.804t.493.46q.048.02.12.111.072.089.48.425t1.07.78q.66.443 1.465.875a14 14 0 0 0 1.73.78q.924.348 1.297.456t1.273.276q.901.168 1.358.216.456.047.624.055l.169.005-.005-.036-.007-.036-.049-.3q-.048-.3-.048-.84t.085-.996.252-.923q.168-.469.329-.751.164-.281.428-.641t.684-.744.961-.684.997-.455q.457-.156.77-.204.311-.048.312-.056"/></symbol><use xlink:href="#sprite-twitter" width="27" height="22" y="105"/><view id="sprite-twitter-view" viewBox="0 105 27 22"/></svg>